<svg width="316" height="400" viewBox="0 0 316 400" fill="none" xmlns="http://www.w3.org/2000/svg">
<path d="M69.7328 116.875V116.521C69.7909 111.526 72.2894 106.571 77.234 103.719L256.95 0L300.389 25.0745L307.826 29.3611L307.815 29.3785C303.445 26.8867 297.85 26.5382 292.864 29.4133L141.602 116.712L185.046 141.787L228.491 166.861V217.016L141.602 166.867L77.234 129.717C72.2835 126.86 69.7793 121.882 69.7328 116.875Z" fill="url(#paint0_linear_746_38)"/>
<path d="M69.7322 175.534V125.385V116.876C69.7786 121.883 72.2829 126.86 77.2334 129.718L141.601 166.868L228.496 217.017V166.862V116.713L271.94 91.6387V191.937V242.092V266.248C271.94 266.301 271.94 266.353 271.94 266.405C271.882 272.115 268.768 276.738 264.433 279.242C260.099 281.745 254.428 282.134 249.425 279.242L228.496 267.166L98.1567 191.943L69.7264 175.54L69.7322 175.534Z" fill="url(#paint1_linear_746_38)"/>
<path d="M141.607 116.714L292.869 29.4145C297.849 26.5394 303.444 26.8879 307.82 29.3797C312.23 31.9005 315.385 36.6111 315.385 42.4194V66.5704V217.012V249.956L264.491 279.329L264.439 279.236C268.774 276.733 271.888 272.109 271.946 266.4C271.946 266.348 271.946 266.301 271.946 266.243V242.086V191.931V91.6333L185.057 141.782L141.613 116.708L141.607 116.714Z" fill="url(#paint2_linear_746_38)"/>
<path d="M245.651 235.607V235.253C245.593 230.258 243.094 225.303 238.15 222.452L58.4336 118.732L14.9949 143.807L7.55762 148.093L7.56924 148.111C11.9387 145.619 17.5341 145.271 22.5194 148.146L173.782 235.445L130.338 260.519L86.893 285.594V335.749L173.782 285.6L238.15 248.45C243.1 245.592 245.605 240.614 245.651 235.607Z" fill="url(#paint3_linear_746_38)"/>
<path d="M245.653 294.266V244.117V235.608C245.606 240.615 243.102 245.593 238.151 248.45L173.784 285.6L86.8888 335.749V285.595V235.446L43.4443 210.371V310.669V360.824V384.981C43.4443 385.033 43.4443 385.085 43.4443 385.138C43.5024 390.847 46.6168 395.471 50.9514 397.974C55.286 400.477 60.9569 400.867 65.9597 397.974L86.8888 385.899L217.228 310.675L245.658 294.272L245.653 294.266Z" fill="url(#paint4_linear_746_38)"/>
<path d="M173.778 235.446L22.5154 148.147C17.5358 145.272 11.9404 145.62 7.56516 148.112C3.15506 150.633 0 155.343 0 161.152V185.303V335.744V368.689L50.8934 398.062L50.9457 397.969C46.6111 395.465 43.4968 390.842 43.4387 385.132C43.4387 385.08 43.4387 385.033 43.4387 384.975V360.819V310.664V210.366L130.328 260.515L173.772 235.44L173.778 235.446Z" fill="url(#paint5_linear_746_38)"/>
<defs>
<linearGradient id="paint0_linear_746_38" x1="160.919" y1="73.005" x2="255.321" y2="226.845" gradientUnits="userSpaceOnUse">
<stop stop-color="#2FEBED"/>
<stop offset="1" stop-color="#080C6F"/>
</linearGradient>
<linearGradient id="paint1_linear_746_38" x1="236.072" y1="104.016" x2="227.776" y2="303.776" gradientUnits="userSpaceOnUse">
<stop stop-color="#2A4D92"/>
<stop offset="0.924711" stop-color="#01F5FF"/>
</linearGradient>
<linearGradient id="paint2_linear_746_38" x1="191.245" y1="109.509" x2="333.548" y2="239.484" gradientUnits="userSpaceOnUse">
<stop stop-color="#00337D"/>
<stop offset="1" stop-color="#9C1F80"/>
</linearGradient>
<linearGradient id="paint3_linear_746_38" x1="171.406" y1="193.125" x2="90.1011" y2="318.031" gradientUnits="userSpaceOnUse">
<stop stop-color="#02FFFE"/>
<stop offset="1" stop-color="#272878"/>
</linearGradient>
<linearGradient id="paint4_linear_746_38" x1="79.3123" y1="222.749" x2="153.063" y2="363.622" gradientUnits="userSpaceOnUse">
<stop stop-color="#2A4D92"/>
<stop offset="0.924711" stop-color="#11A8C7"/>
</linearGradient>
<linearGradient id="paint5_linear_746_38" x1="116.499" y1="257.889" x2="-64.7373" y2="397.933" gradientUnits="userSpaceOnUse">
<stop stop-color="#0C316E"/>
<stop offset="1" stop-color="#C11268"/>
</linearGradient>
</defs>
</svg>
